<svg id="Réteg_1" data-name="Réteg 1" xmlns="http://www.w3.org/2000/svg" viewBox="0 0 160 24"><defs><style>.cls-1{fill:#e63457;}</style></defs><title>Rajztábla 1</title><path class="cls-1" d="M3.43,19v2H1.87V2.49H3.43v8.4h0a5,5,0,0,1,1.86-2A5.07,5.07,0,0,1,8,8.21a5.08,5.08,0,0,1,2.14.43,4.38,4.38,0,0,1,1.6,1.24,5.71,5.71,0,0,1,1,1.94,8.62,8.62,0,0,1,.35,2.53,9.49,9.49,0,0,1-.4,2.83,6.61,6.61,0,0,1-1.13,2.19,5.1,5.1,0,0,1-1.78,1.42,5.28,5.28,0,0,1-2.34.51A4.23,4.23,0,0,1,3.48,19Zm0-3.19a4.47,4.47,0,0,0,.29,1.61,4.18,4.18,0,0,0,.8,1.32,3.72,3.72,0,0,0,1.24.9,3.84,3.84,0,0,0,1.6.33,3.6,3.6,0,0,0,1.7-.4,3.71,3.71,0,0,0,1.29-1.13,5.47,5.47,0,0,0,.82-1.77,8.69,8.69,0,0,0,.29-2.32,6.83,6.83,0,0,0-.27-2,4.5,4.5,0,0,0-.76-1.51,3.31,3.31,0,0,0-1.2-1,3.65,3.65,0,0,0-1.57-.33,4.15,4.15,0,0,0-1.76.36,4,4,0,0,0-1.33,1,4.36,4.36,0,0,0-.84,1.46,5.34,5.34,0,0,0-.29,1.78Z"/><path class="cls-1" d="M17,15a7,7,0,0,0,.31,2.06,4.37,4.37,0,0,0,.84,1.55,3.61,3.61,0,0,0,1.34,1,4.48,4.48,0,0,0,1.78.34,6.36,6.36,0,0,0,4-1.48V20a7.28,7.28,0,0,1-4.35,1.28,5.74,5.74,0,0,1-2.28-.44,4.74,4.74,0,0,1-1.75-1.28,5.82,5.82,0,0,1-1.11-2.06,9.11,9.11,0,0,1-.39-2.78,7.67,7.67,0,0,1,.43-2.6,6.41,6.41,0,0,1,1.18-2.07A5.47,5.47,0,0,1,18.74,8.7,5.21,5.21,0,0,1,21,8.21a5.13,5.13,0,0,1,2.14.42,4.2,4.2,0,0,1,1.56,1.2,5.44,5.44,0,0,1,1,1.9A8.92,8.92,0,0,1,26,14.25V15Zm7.42-1.37a4.76,4.76,0,0,0-.93-3A3,3,0,0,0,21,9.56a3.81,3.81,0,0,0-1.47.28,3.52,3.52,0,0,0-1.19.81,4.39,4.39,0,0,0-.85,1.29A6.48,6.48,0,0,0,17,13.66Z"/><path class="cls-1" d="M35.26,10.1a2.33,2.33,0,0,0-1.42-.4,2.42,2.42,0,0,0-1.1.24,2.78,2.78,0,0,0-.84.64,3.88,3.88,0,0,0-.61.93,6.55,6.55,0,0,0-.4,1.1,8,8,0,0,0-.22,1.16,9.75,9.75,0,0,0-.07,1.11V21H29.06V8.5h1.55v2.67h0a5.55,5.55,0,0,1,.56-1.23A3.81,3.81,0,0,1,32,9a3.24,3.24,0,0,1,1-.57A3.08,3.08,0,0,1,34,8.27a4.27,4.27,0,0,1,.68,0,2.6,2.6,0,0,1,.54.15Z"/><path class="cls-1" d="M37.94,15a7,7,0,0,0,.31,2.06,4.37,4.37,0,0,0,.84,1.55,3.61,3.61,0,0,0,1.34,1A4.48,4.48,0,0,0,42.2,20a6.36,6.36,0,0,0,4-1.48V20a7.28,7.28,0,0,1-4.35,1.28,5.74,5.74,0,0,1-2.28-.44,4.74,4.74,0,0,1-1.75-1.28,5.82,5.82,0,0,1-1.11-2.06,9.11,9.11,0,0,1-.39-2.78,7.67,7.67,0,0,1,.43-2.6,6.41,6.41,0,0,1,1.18-2.07A5.47,5.47,0,0,1,39.72,8.7,5.21,5.21,0,0,1,42,8.21a5.13,5.13,0,0,1,2.14.42,4.2,4.2,0,0,1,1.56,1.2,5.44,5.44,0,0,1,1,1.9A8.92,8.92,0,0,1,47,14.25V15Zm7.42-1.37a4.76,4.76,0,0,0-.93-3A3,3,0,0,0,42,9.56a3.81,3.81,0,0,0-1.47.28,3.52,3.52,0,0,0-1.19.81,4.39,4.39,0,0,0-.85,1.29A6.48,6.48,0,0,0,38,13.66Z"/><path class="cls-1" d="M58.47,21V13.8q0-4.24-3.08-4.24a3.54,3.54,0,0,0-1.51.32,3.62,3.62,0,0,0-1.2.9,4.22,4.22,0,0,0-.79,1.36,5,5,0,0,0-.29,1.7V21H50V8.5H51.6v2.17h0a4.52,4.52,0,0,1,4.19-2.47A3.78,3.78,0,0,1,59,9.54,6,6,0,0,1,60,13.38V21Z"/><path class="cls-1" d="M72.56,21V18.8h0a4.44,4.44,0,0,1-1.78,1.84,5.22,5.22,0,0,1-2.62.65A5.11,5.11,0,0,1,66,20.86a4.56,4.56,0,0,1-1.64-1.25,5.8,5.8,0,0,1-1.06-2A8.56,8.56,0,0,1,62.92,15a8.87,8.87,0,0,1,.41-2.77,6.41,6.41,0,0,1,1.16-2.15A5.21,5.21,0,0,1,66.29,8.7a5.48,5.48,0,0,1,2.35-.49,4.06,4.06,0,0,1,3.87,2.16h0V2.49h1.56V21Zm0-7.54a4.11,4.11,0,0,0-.28-1.53,3.8,3.8,0,0,0-.78-1.23,3.66,3.66,0,0,0-1.2-.83,3.84,3.84,0,0,0-1.54-.31A4,4,0,0,0,67,9.93,3.73,3.73,0,0,0,65.71,11a5.07,5.07,0,0,0-.87,1.68,7.49,7.49,0,0,0-.31,2.25A7.4,7.4,0,0,0,64.81,17a4.61,4.61,0,0,0,.8,1.59,3.48,3.48,0,0,0,1.24,1,3.68,3.68,0,0,0,1.6.34,4.15,4.15,0,0,0,1.71-.34,3.75,3.75,0,0,0,1.29-.94,4.21,4.21,0,0,0,.82-1.4,5.1,5.1,0,0,0,.29-1.72Z"/><path class="cls-1" d="M78.92,5.34A1.09,1.09,0,0,1,78.14,5a1.07,1.07,0,0,1-.33-.81,1,1,0,0,1,.33-.79,1.1,1.1,0,0,1,.78-.31,1.22,1.22,0,0,1,.44.08,1.06,1.06,0,0,1,.36.23,1.13,1.13,0,0,1,.24.35,1.08,1.08,0,0,1,.09.45,1.15,1.15,0,0,1-.09.44,1,1,0,0,1-.24.36,1.17,1.17,0,0,1-.36.24A1.12,1.12,0,0,1,78.92,5.34ZM78.15,21V8.5h1.56V21Z"/><path class="cls-1" d="M95.82,15.84q-1,2.91-3.54,2.91a3.46,3.46,0,0,1-1.61-.36,3.4,3.4,0,0,1-1.16-1A4.3,4.3,0,0,1,88.8,16a6.33,6.33,0,0,1-.24-1.76,8.69,8.69,0,0,1,.13-1.5,8.18,8.18,0,0,1,.4-1.48,6.68,6.68,0,0,1,.68-1.34,5,5,0,0,1,1-1.1A4.32,4.32,0,0,1,92,8a4.6,4.6,0,0,1,1.6-.27,3,3,0,0,1,.78.1,2.91,2.91,0,0,1,.73.3,2.59,2.59,0,0,1,.61.5,2.16,2.16,0,0,1,.42.69h0L96.36,8h1.29l-.6,7q0,2.59,1.66,2.59a2.41,2.41,0,0,0,1.1-.24,2.75,2.75,0,0,0,.84-.66,4.17,4.17,0,0,0,.62-1,6.48,6.48,0,0,0,.41-1.13,9.09,9.09,0,0,0,.23-1.18,9.26,9.26,0,0,0,.07-1.12A8.44,8.44,0,0,0,101.4,9a7,7,0,0,0-1.67-2.46A7.33,7.33,0,0,0,97.13,5a9.84,9.84,0,0,0-3.34-.54,8.88,8.88,0,0,0-2.41.32,8.32,8.32,0,0,0-2.08.9A8,8,0,0,0,87.59,7a8.36,8.36,0,0,0-1.28,1.82,9.46,9.46,0,0,0-.81,2.18,10.48,10.48,0,0,0-.28,2.45,9.77,9.77,0,0,0,.6,3.49,7.52,7.52,0,0,0,4.39,4.46,9.48,9.48,0,0,0,3.52.62,11.82,11.82,0,0,0,5.18-1v1.33a13.77,13.77,0,0,1-5.3.93,10.69,10.69,0,0,1-4-.72,8.87,8.87,0,0,1-5.1-5.1,10.55,10.55,0,0,1-.71-3.93,11.16,11.16,0,0,1,.33-2.73,10.68,10.68,0,0,1,.95-2.46,9.94,9.94,0,0,1,1.5-2.09,9.2,9.2,0,0,1,2-1.62A10,10,0,0,1,91,3.6a10.58,10.58,0,0,1,2.85-.37,10.84,10.84,0,0,1,2.54.29,10.14,10.14,0,0,1,2.28.84,8.91,8.91,0,0,1,1.92,1.33,8.52,8.52,0,0,1,1.49,1.78,8.35,8.35,0,0,1,1,2.16,9.06,9.06,0,0,1,.34,2.5,9.81,9.81,0,0,1-.12,1.47,9.21,9.21,0,0,1-.36,1.5,7.61,7.61,0,0,1-.62,1.4,5.11,5.11,0,0,1-.9,1.16,4,4,0,0,1-1.21.79,3.92,3.92,0,0,1-1.54.29q-2.69,0-2.8-2.91ZM93.62,9A2.89,2.89,0,0,0,92,9.46a3.68,3.68,0,0,0-1.12,1.22,5.67,5.67,0,0,0-.63,1.67,8.77,8.77,0,0,0-.2,1.82,5.24,5.24,0,0,0,.17,1.39,3.14,3.14,0,0,0,.49,1.06,2.22,2.22,0,0,0,.78.67,2.25,2.25,0,0,0,1,.23,2.53,2.53,0,0,0,1.2-.27,3,3,0,0,0,.9-.73,4.14,4.14,0,0,0,.64-1,7.86,7.86,0,0,0,.42-1.23A9.35,9.35,0,0,0,95.87,13a11.7,11.7,0,0,0,.07-1.21,3.09,3.09,0,0,0-.6-2.06A2.15,2.15,0,0,0,93.62,9Z"/><path class="cls-1" d="M108.24,5.34a1.09,1.09,0,0,1-.78-.32,1.07,1.07,0,0,1-.33-.81,1,1,0,0,1,.33-.79,1.1,1.1,0,0,1,.78-.31,1.22,1.22,0,0,1,.44.08,1.06,1.06,0,0,1,.36.23,1.13,1.13,0,0,1,.24.35,1.08,1.08,0,0,1,.09.45,1.15,1.15,0,0,1-.09.44A1,1,0,0,1,109,5a1.17,1.17,0,0,1-.36.24A1.12,1.12,0,0,1,108.24,5.34ZM107.47,21V8.5H109V21Z"/><path class="cls-1" d="M112.36,18.75a5,5,0,0,0,.77.5,6.59,6.59,0,0,0,.85.38,5.4,5.4,0,0,0,.88.24,4.86,4.86,0,0,0,.85.08q2.78,0,2.78-2.09a1.66,1.66,0,0,0-.2-.82,2.14,2.14,0,0,0-.56-.63,4.71,4.71,0,0,0-.88-.53q-.51-.24-1.16-.51a11.59,11.59,0,0,1-1.49-.72,4.52,4.52,0,0,1-1-.8,2.88,2.88,0,0,1-.6-1,3.33,3.33,0,0,1-.2-1.18,3,3,0,0,1,.36-1.48,3.43,3.43,0,0,1,1-1.1,4.51,4.51,0,0,1,1.41-.69,5.84,5.84,0,0,1,1.68-.24,6.21,6.21,0,0,1,2.83.61v1.65a5.49,5.49,0,0,0-3-.9,3.67,3.67,0,0,0-1.07.15,2.49,2.49,0,0,0-.82.42,1.9,1.9,0,0,0-.53.64,1.79,1.79,0,0,0-.19.82,2.08,2.08,0,0,0,.15.81,1.77,1.77,0,0,0,.46.63,3.8,3.8,0,0,0,.81.54q.49.26,1.2.55a15.17,15.17,0,0,1,1.56.73,4.83,4.83,0,0,1,1.09.78,2.75,2.75,0,0,1,.63.94,3.23,3.23,0,0,1,.21,1.2,3.17,3.17,0,0,1-.35,1.5,3.24,3.24,0,0,1-1,1.11,4.43,4.43,0,0,1-1.45.68,6.71,6.71,0,0,1-1.81.23,6,6,0,0,1-3.19-.79Z"/><path class="cls-1" d="M129,4a2.45,2.45,0,0,0-1.35-.34q-2.2,0-2.2,2.87v2h3.11V9.87h-3.11V21h-1.56V9.87h-2.19V8.5h2.19V6.4a5.72,5.72,0,0,1,.24-1.7,3.66,3.66,0,0,1,.7-1.31A3,3,0,0,1,126,2.56a4.17,4.17,0,0,1,1.62-.29,3.44,3.44,0,0,1,1.39.23Z"/><path class="cls-1" d="M129.73,21.24a1.17,1.17,0,0,1-1.17-1.17,1.15,1.15,0,0,1,.34-.84,1.12,1.12,0,0,1,.84-.34,1.16,1.16,0,0,1,.46.09,1.25,1.25,0,0,1,.37.24,1.18,1.18,0,0,1,.26.37,1.16,1.16,0,0,1,.1.48,1.09,1.09,0,0,1-.1.46,1.28,1.28,0,0,1-.26.37,1.18,1.18,0,0,1-.37.25A1.14,1.14,0,0,1,129.73,21.24Z"/><path class="cls-1" d="M142.92,21V13.65a5.12,5.12,0,0,0-.76-3.09,2.77,2.77,0,0,0-2.36-1,3.51,3.51,0,0,0-2.64,1.18,4.32,4.32,0,0,0-.82,1.4A5.34,5.34,0,0,0,136,14v7h-1.56V2.49H136v8.17h0a4.63,4.63,0,0,1,4.2-2.45,3.82,3.82,0,0,1,3.14,1.28,5.86,5.86,0,0,1,1,3.78V21Z"/><path class="cls-1" d="M156.42,21V18.88h0a4.18,4.18,0,0,1-3.94,2.42q-4.46,0-4.46-5.44V8.5h1.56v7.06a5.57,5.57,0,0,0,.8,3.32A2.85,2.85,0,0,0,152.79,20a3.43,3.43,0,0,0,1.47-.31,3.35,3.35,0,0,0,1.15-.88,4.1,4.1,0,0,0,.75-1.36,5.44,5.44,0,0,0,.27-1.76V8.5H158V21Z"/></svg>