<svg id="Réteg_1" data-name="Réteg 1" xmlns="http://www.w3.org/2000/svg" viewBox="0 0 28.46 30"><defs><style>.cls-1,.cls-2{fill:none;stroke:#fff;stroke-width:2px;}.cls-1{stroke-miterlimit:10;}.cls-2{stroke-linecap:round;stroke-linejoin:round;}</style></defs><title>date-icon-32x32</title><path class="cls-1" d="M26.2,29.8h-20C4,29.8,3,27.5,3,25.32V9.15C3,7,4,4.74,6.21,4.74h20c2.19,0,3.24,2.23,3.24,4.41V25.32C29.44,27.5,28.38,29.8,26.2,29.8Z" transform="translate(-1.97 -0.8)"/><line class="cls-2" x1="9.09" y1="1" x2="9.09" y2="5.41"/><line class="cls-2" x1="5.59" y1="1" x2="5.59" y2="5.41"/><line class="cls-2" x1="12.59" y1="1" x2="12.59" y2="5.41"/><line class="cls-2" x1="16.09" y1="1" x2="16.09" y2="5.41"/><line class="cls-2" x1="19.59" y1="1" x2="19.59" y2="5.41"/><line class="cls-2" x1="23.19" y1="1" x2="23.19" y2="5.41"/><line class="cls-2" x1="23.05" y1="9.82" x2="5.41" y2="9.82"/><polyline class="cls-2" points="7.12 17.57 10.55 14.23 10.55 24.52"/><path class="cls-2" d="M22.73,25.32H16.85l4.41-4.41A5.13,5.13,0,0,0,22.73,18,2.69,2.69,0,0,0,19.79,15,2.88,2.88,0,0,0,16.85,18" transform="translate(-1.97 -0.8)"/></svg>