<svg id="Réteg_1" data-name="Réteg 1" xmlns="http://www.w3.org/2000/svg" viewBox="0 0 260 20"><defs><style>.cls-1{fill:#fff;}.cls-2{fill:#33b5b1;}</style></defs><title>Rajztábla 1</title><path class="cls-1" d="M15.82,6.28H14.05l.24-1.06h1.76l.4-1.87Q17.13.18,19.91.18a4,4,0,0,1,1.2.18L20.9,1.49a2.12,2.12,0,0,0-1.1-.24,1.78,1.78,0,0,0-1.38.57,3.78,3.78,0,0,0-.78,1.78l-.35,1.62h2.52l-.25,1.06H17L14.42,18.54H13.19Z"/><path class="cls-1" d="M21.09,5.22h1.22L22,7.5h0a6.45,6.45,0,0,1,1.39-1.9A2.48,2.48,0,0,1,25.09,5a2.67,2.67,0,0,1,1,.21L25.91,6.5h0a2,2,0,0,0-1.08-.34,2.7,2.7,0,0,0-2.06,1.32,8.53,8.53,0,0,0-1.43,3.34l-.94,4.39H19.13l1.4-6.56A25.5,25.5,0,0,0,21.09,5.22Z"/><path class="cls-1" d="M29.7,15.46a3.44,3.44,0,0,1-2.64-1,4,4,0,0,1-1-2.88,8,8,0,0,1,.69-3.33,5.68,5.68,0,0,1,1.93-2.38A4.7,4.7,0,0,1,31.46,5a3.41,3.41,0,0,1,2.63,1,4,4,0,0,1,1,2.86,8.05,8.05,0,0,1-.69,3.36,5.66,5.66,0,0,1-1.91,2.37A4.7,4.7,0,0,1,29.7,15.46Zm.09-1.07a3.24,3.24,0,0,0,2-.72,4.76,4.76,0,0,0,1.45-2A7,7,0,0,0,33.79,9a3.2,3.2,0,0,0-.65-2.16A2.24,2.24,0,0,0,31.36,6a3.45,3.45,0,0,0-2.84,1.57,6.29,6.29,0,0,0-1.17,3.86A3.21,3.21,0,0,0,28,13.61,2.21,2.21,0,0,0,29.79,14.39Z"/><path class="cls-1" d="M38.36,5.22h1.2q-.14,1-.42,2.62h0Q41,5,43,5a2.08,2.08,0,0,1,1.76.72,3.56,3.56,0,0,1,.57,2.13,7.51,7.51,0,0,1,1.87-2.1A3.48,3.48,0,0,1,49.28,5q2.35,0,2.35,2.71a11.55,11.55,0,0,1-.29,2l-1.18,5.54H48.94l1.19-5.8a8.73,8.73,0,0,0,.24-1.63Q50.37,6,48.94,6a2.71,2.71,0,0,0-1.57.63,6.62,6.62,0,0,0-1.55,1.69,6.24,6.24,0,0,0-.92,2.05l-1,4.79H42.64l1.21-5.8a8.82,8.82,0,0,0,.24-1.54Q44.09,6,42.66,6a2.73,2.73,0,0,0-1.58.64A6.69,6.69,0,0,0,39.51,8.4a6,6,0,0,0-.91,2l-1,4.77H36.35L37.89,8A26.57,26.57,0,0,0,38.36,5.22Z"/><path class="cls-1" d="M61.9,1.21h1.3L61.86,7.5h7.62l1.35-6.29h1.29l-3,14H67.85l1.38-6.53H61.6l-1.37,6.53h-1.3Z"/><path class="cls-1" d="M74.56,5.22h1.23L74.58,11a10.66,10.66,0,0,0-.23,1.54q0,1.83,1.57,1.83a3,3,0,0,0,1.65-.61A6.62,6.62,0,0,0,79.2,12.1a6,6,0,0,0,1-2.12l1-4.77h1.23L80.89,12.4a26.42,26.42,0,0,0-.47,2.81h-1.2l.42-2.62h0a7.22,7.22,0,0,1-1.88,2.12,3.6,3.6,0,0,1-2.12.74,2.38,2.38,0,0,1-1.89-.72,3,3,0,0,1-.62-2,6.53,6.53,0,0,1,.1-.92q.1-.63.2-1Z"/><path class="cls-1" d="M85.55,5.22h1.2q-.14,1-.42,2.62h0a7.22,7.22,0,0,1,1.88-2.12A3.61,3.61,0,0,1,90.38,5q2.51,0,2.51,2.71a11.53,11.53,0,0,1-.31,2l-1.17,5.54H90.18l1.2-5.8a10.66,10.66,0,0,0,.23-1.54Q91.61,6,90,6a3,3,0,0,0-1.71.66,6.55,6.55,0,0,0-1.63,1.69,5.79,5.79,0,0,0-.91,2.06l-1,4.77H83.54L85.08,8Q85.35,6.68,85.55,5.22Z"/><path class="cls-1" d="M93.93,18a5.46,5.46,0,0,0,2.74.83,3.69,3.69,0,0,0,2.65-.93,6.08,6.08,0,0,0,1.48-3.09l.5-2.25h0a8,8,0,0,1-1.71,2.2,3,3,0,0,1-1.94.71,2.54,2.54,0,0,1-2.1-.94,4.27,4.27,0,0,1-.75-2.72,7.61,7.61,0,0,1,.79-3.44,6.18,6.18,0,0,1,2.17-2.48,5.49,5.49,0,0,1,3.06-.9,14.12,14.12,0,0,1,1.62.11q.95.11,1.62.26l-1.94,9.16a8,8,0,0,1-2,4.17,5.05,5.05,0,0,1-3.61,1.25,5.8,5.8,0,0,1-2.81-.72ZM102.6,6.25a8.54,8.54,0,0,0-2-.21,4,4,0,0,0-2.33.73,4.92,4.92,0,0,0-1.67,2A6.72,6.72,0,0,0,96,11.68q0,2.71,1.83,2.71a2.66,2.66,0,0,0,1.7-.72,6.51,6.51,0,0,0,1.52-2A9.67,9.67,0,0,0,102,9.22Z"/><path class="cls-1" d="M111.62,15.22a21,21,0,0,1,.33-2.7h0a7.71,7.71,0,0,1-1.76,2.26,3,3,0,0,1-1.92.68,2.51,2.51,0,0,1-2.09-1,4.25,4.25,0,0,1-.75-2.68,7.76,7.76,0,0,1,.81-3.49,6,6,0,0,1,2.2-2.5A5.75,5.75,0,0,1,111.5,5a16.41,16.41,0,0,1,3.14.38l-1.34,6.46q-.14.64-.28,1.76a14.52,14.52,0,0,0-.14,1.65Zm1.61-9A8.71,8.71,0,0,0,111.35,6a4.16,4.16,0,0,0-2.39.72,4.92,4.92,0,0,0-1.68,2.05,6.81,6.81,0,0,0-.62,2.92q0,2.65,1.88,2.65a2.57,2.57,0,0,0,1.62-.69,6.55,6.55,0,0,0,1.51-1.95,9.74,9.74,0,0,0,1-2.54Z"/><path class="cls-1" d="M117.75,5.22H119l-.33,2.29h0a6.45,6.45,0,0,1,1.39-1.9A2.48,2.48,0,0,1,121.74,5a2.67,2.67,0,0,1,1,.21l-.22,1.32h0a2,2,0,0,0-1.08-.34,2.7,2.7,0,0,0-2.06,1.32A8.53,8.53,0,0,0,118,10.82L117,15.22h-1.23l1.4-6.56A25.5,25.5,0,0,0,117.75,5.22Z"/><path class="cls-1" d="M121.26,18.61a1.55,1.55,0,0,0,.77.18,2.09,2.09,0,0,0,1.26-.41,4.5,4.5,0,0,0,1.1-1.27l1.26-2-1.79-9.91h1.26l1.31,7.9.07.75h0l.26-.52,4.84-8.13H133L125.79,17a8.38,8.38,0,0,1-1.91,2.3,3.26,3.26,0,0,1-2,.63,2.36,2.36,0,0,1-.9-.15Z"/><path class="cls-2" d="M146.5,0H260V20H141.15a1.55,1.55,0,0,1-1.53-2.09l4.23-15.79A2.93,2.93,0,0,1,146.5,0Z"/></svg>