<svg id="Réteg_1" data-name="Réteg 1" xmlns="http://www.w3.org/2000/svg" viewBox="0 0 140 24"><defs><style>.cls-1{fill:#e63457;}</style></defs><title>info-mail-svg</title><path class="cls-1" d="M3.3,3.86a1.22,1.22,0,0,1-.87-.36,1.2,1.2,0,0,1-.37-.9,1.16,1.16,0,0,1,.37-.88,1.23,1.23,0,0,1,.88-.35,1.37,1.37,0,0,1,.49.09,1.2,1.2,0,0,1,.4.25,1.25,1.25,0,0,1,.27.39,1.19,1.19,0,0,1,.1.5,1.28,1.28,0,0,1-.1.49,1.17,1.17,0,0,1-.27.4,1.31,1.31,0,0,1-.4.27A1.26,1.26,0,0,1,3.3,3.86ZM2.44,21.41v-14H4.19v14Z"/><path class="cls-1" d="M18.15,21.41V13.34q0-4.74-3.45-4.74A4,4,0,0,0,13,9a4.06,4.06,0,0,0-1.35,1,4.71,4.71,0,0,0-.89,1.52,5.53,5.53,0,0,0-.32,1.91v8H8.7v-14h1.75V9.84h.05A5.06,5.06,0,0,1,15.2,7.08a4.24,4.24,0,0,1,3.5,1.49,6.72,6.72,0,0,1,1.2,4.31v8.53Z"/><path class="cls-1" d="M30.63,2.33A2.74,2.74,0,0,0,29.12,2q-2.46,0-2.46,3.21V7.41h3.49V8.94H26.65V21.41H24.9V8.94H22.46V7.41H24.9V5.05a6.39,6.39,0,0,1,.27-1.91A4.1,4.1,0,0,1,26,1.68,3.42,3.42,0,0,1,27.26.75,4.67,4.67,0,0,1,29.07.42a3.85,3.85,0,0,1,1.56.26Z"/><path class="cls-1" d="M38.08,21.73a7.16,7.16,0,0,1-2.8-.52,6,6,0,0,1-2.11-1.47,6.47,6.47,0,0,1-1.34-2.28,8.83,8.83,0,0,1-.46-2.94,9.29,9.29,0,0,1,.49-3.13,6.59,6.59,0,0,1,1.4-2.34,6,6,0,0,1,2.19-1.47,7.78,7.78,0,0,1,2.87-.51,7.15,7.15,0,0,1,2.73.5A5.59,5.59,0,0,1,43.13,9a6.43,6.43,0,0,1,1.3,2.3,9.71,9.71,0,0,1,.45,3.08,9,9,0,0,1-.47,3,6.75,6.75,0,0,1-1.35,2.32,6,6,0,0,1-2.13,1.5A7.22,7.22,0,0,1,38.08,21.73Zm.14-13.14a5.25,5.25,0,0,0-2.08.4,4.36,4.36,0,0,0-1.59,1.16,5.22,5.22,0,0,0-1,1.86,8.1,8.1,0,0,0-.36,2.5,7.36,7.36,0,0,0,.36,2.37,5.33,5.33,0,0,0,1,1.8,4.33,4.33,0,0,0,1.58,1.16,5.64,5.64,0,0,0,4.16,0,4.1,4.1,0,0,0,1.53-1.13,5,5,0,0,0,1-1.83,8.64,8.64,0,0,0,.32-2.46,6.56,6.56,0,0,0-1.26-4.33A4.43,4.43,0,0,0,38.22,8.59Z"/><path class="cls-1" d="M61.93,15.62q-1.12,3.25-4,3.25a3.87,3.87,0,0,1-1.8-.4,3.8,3.8,0,0,1-1.3-1.09,4.83,4.83,0,0,1-.79-1.61,7.11,7.11,0,0,1-.27-2A9.74,9.74,0,0,1,54,12.12a9.18,9.18,0,0,1,.45-1.66A7.52,7.52,0,0,1,55.17,9a5.65,5.65,0,0,1,1.09-1.23,4.85,4.85,0,0,1,1.44-.83,5.16,5.16,0,0,1,1.8-.3,3.41,3.41,0,0,1,.88.12,3.26,3.26,0,0,1,.82.34,2.89,2.89,0,0,1,.68.56,2.42,2.42,0,0,1,.46.77h.05l.14-1.6H64l-.67,7.83q0,2.9,1.86,2.9a2.7,2.7,0,0,0,1.24-.27,3.08,3.08,0,0,0,.94-.74,4.66,4.66,0,0,0,.69-1.07,7.24,7.24,0,0,0,.46-1.26,10.18,10.18,0,0,0,.25-1.33,10.37,10.37,0,0,0,.08-1.26A9.46,9.46,0,0,0,68.18,8a7.83,7.83,0,0,0-1.87-2.75A8.23,8.23,0,0,0,63.4,3.46a11,11,0,0,0-3.75-.61,9.94,9.94,0,0,0-2.7.36,9.31,9.31,0,0,0-2.33,1,8.92,8.92,0,0,0-1.91,1.57,9.35,9.35,0,0,0-1.44,2,10.58,10.58,0,0,0-.9,2.44A11.74,11.74,0,0,0,50.06,13a10.94,10.94,0,0,0,.67,3.9,8.42,8.42,0,0,0,4.92,5,10.61,10.61,0,0,0,3.94.7,13.23,13.23,0,0,0,5.8-1.16v1.49a15.42,15.42,0,0,1-5.93,1A12,12,0,0,1,55,23.17a9.93,9.93,0,0,1-5.71-5.71,11.8,11.8,0,0,1-.8-4.4A12.5,12.5,0,0,1,48.84,10,11.94,11.94,0,0,1,49.9,7.24,11.11,11.11,0,0,1,51.58,4.9a10.3,10.3,0,0,1,2.25-1.81,11.21,11.21,0,0,1,2.75-1.17,11.86,11.86,0,0,1,3.19-.42,12.15,12.15,0,0,1,2.84.33,11.35,11.35,0,0,1,2.55.94,10,10,0,0,1,2.15,1.49,9.56,9.56,0,0,1,1.67,2,9.36,9.36,0,0,1,1.07,2.42,10.14,10.14,0,0,1,.38,2.8,11,11,0,0,1-.13,1.65,10.3,10.3,0,0,1-.4,1.68,8.52,8.52,0,0,1-.7,1.57,5.72,5.72,0,0,1-1,1.3,4.5,4.5,0,0,1-1.36.89,4.38,4.38,0,0,1-1.73.33q-3,0-3.13-3.25ZM59.47,8a3.24,3.24,0,0,0-1.87.53,4.12,4.12,0,0,0-1.26,1.37,6.34,6.34,0,0,0-.7,1.87,9.83,9.83,0,0,0-.22,2,5.87,5.87,0,0,0,.19,1.56,3.5,3.5,0,0,0,.55,1.18,2.48,2.48,0,0,0,.88.75,2.52,2.52,0,0,0,1.16.26,2.84,2.84,0,0,0,1.35-.31,3.42,3.42,0,0,0,1-.81,4.61,4.61,0,0,0,.72-1.17,8.79,8.79,0,0,0,.46-1.38A10.57,10.57,0,0,0,62,12.4,13.25,13.25,0,0,0,62.06,11a3.46,3.46,0,0,0-.67-2.31A2.4,2.4,0,0,0,59.47,8Z"/><path class="cls-1" d="M75.85,3.86A1.22,1.22,0,0,1,75,3.51a1.2,1.2,0,0,1-.37-.9A1.16,1.16,0,0,1,75,1.72a1.23,1.23,0,0,1,.88-.35,1.37,1.37,0,0,1,.49.09,1.2,1.2,0,0,1,.4.25,1.25,1.25,0,0,1,.27.39,1.19,1.19,0,0,1,.1.5,1.28,1.28,0,0,1-.1.49,1.17,1.17,0,0,1-.27.4,1.31,1.31,0,0,1-.4.27A1.26,1.26,0,0,1,75.85,3.86ZM75,21.41v-14h1.75v14Z"/><path class="cls-1" d="M80.45,18.89a5.55,5.55,0,0,0,.86.56,7.39,7.39,0,0,0,1,.42,6,6,0,0,0,1,.27,5.39,5.39,0,0,0,1,.09q3.12,0,3.12-2.34a1.86,1.86,0,0,0-.22-.92,2.41,2.41,0,0,0-.63-.71,5.29,5.29,0,0,0-1-.59q-.57-.27-1.3-.57a13,13,0,0,1-1.67-.81,5,5,0,0,1-1.15-.9,3.22,3.22,0,0,1-.67-1.07A3.72,3.72,0,0,1,80.49,11a3.34,3.34,0,0,1,.4-1.65A3.84,3.84,0,0,1,82,8.12a5.06,5.06,0,0,1,1.58-.77,6.55,6.55,0,0,1,1.88-.27,7,7,0,0,1,3.17.68V9.61a6.15,6.15,0,0,0-3.39-1,4.1,4.1,0,0,0-1.2.16,2.79,2.79,0,0,0-.92.46,2.14,2.14,0,0,0-.59.72,2,2,0,0,0-.21.92,2.33,2.33,0,0,0,.16.91,2,2,0,0,0,.51.7,4.29,4.29,0,0,0,.9.6q.55.29,1.35.62a17.1,17.1,0,0,1,1.75.81,5.44,5.44,0,0,1,1.22.88,3.08,3.08,0,0,1,.71,1.05,3.61,3.61,0,0,1,.23,1.35,3.55,3.55,0,0,1-.39,1.68,3.62,3.62,0,0,1-1.08,1.24,5,5,0,0,1-1.62.77,7.51,7.51,0,0,1-2,.26,6.71,6.71,0,0,1-3.57-.89Z"/><path class="cls-1" d="M99.14,2.33A2.74,2.74,0,0,0,97.63,2q-2.46,0-2.46,3.21V7.41h3.49V8.94H95.16V21.41H93.41V8.94H91V7.41h2.45V5.05a6.39,6.39,0,0,1,.27-1.91,4.1,4.1,0,0,1,.79-1.46A3.42,3.42,0,0,1,95.77.75,4.67,4.67,0,0,1,97.58.42a3.85,3.85,0,0,1,1.56.26Z"/><path class="cls-1" d="M99.91,21.68a1.31,1.31,0,0,1-1.31-1.31,1.29,1.29,0,0,1,.38-.94,1.26,1.26,0,0,1,.94-.38,1.29,1.29,0,0,1,.51.1,1.39,1.39,0,0,1,.42.27,1.32,1.32,0,0,1,.29.42,1.3,1.3,0,0,1,.11.53,1.22,1.22,0,0,1-.11.51,1.42,1.42,0,0,1-.29.42,1.33,1.33,0,0,1-.42.28A1.29,1.29,0,0,1,99.91,21.68Z"/><path class="cls-1" d="M114.69,21.41V13.17a5.73,5.73,0,0,0-.85-3.47,3.1,3.1,0,0,0-2.64-1.11,3.93,3.93,0,0,0-3,1.33,4.84,4.84,0,0,0-.92,1.57,6,6,0,0,0-.34,2.08v7.83h-1.75V.68H107V9.83H107a5.19,5.19,0,0,1,4.7-2.75,4.28,4.28,0,0,1,3.51,1.44,6.56,6.56,0,0,1,1.18,4.24v8.65Z"/><path class="cls-1" d="M129.81,21.41V19h-.05a4.68,4.68,0,0,1-4.42,2.71q-5,0-5-6.1V7.41h1.75v7.9A6.24,6.24,0,0,0,123,19a3.19,3.19,0,0,0,2.74,1.2,3.84,3.84,0,0,0,1.65-.35,3.76,3.76,0,0,0,1.29-1,4.61,4.61,0,0,0,.84-1.52,6.12,6.12,0,0,0,.3-2v-8h1.75v14Z"/></svg>