<svg xmlns="http://www.w3.org/2000/svg" viewBox="0 0 486.78723 119.48936"><defs><style>.a{fill:#fff;}</style></defs><path class="a" d="M54.40087,104.36833s-16.13293,3.586-26.09436-9.62793C16.13891,78.60008,36.71789,49.441,36.71789,49.441s-3.1814,20.95184,2.11834,33.81513C44.67254,97.42192,54.40087,104.36833,54.40087,104.36833Zm16.41357-8.9671c-13.78863-1.84058-30.3399-15.0708-30.3399-15.0708s14.95819,32.40222,35.01868,29.93249c16.42321-2.02185,21.38549-17.78821,21.38549-17.78821S85.99914,97.4282,70.81444,95.40123ZM61.58691,30.74089s-35.53711-3.24329-43.43,15.36676c-6.46179,15.23572,4.70886,27.41607,4.70886,27.41607S24.017,61.62394,33.36535,49.48509C41.85424,38.46232,61.58691,30.74089,61.58691,30.74089Zm30.264,9.26318c5.29975,12.8634,2.11835,33.81513,2.11835,33.81513s20.579-29.15894,8.41132-45.29932c-9.96137-13.21387-26.0943-9.628-26.0943-9.628S86.01464,25.83836,91.85094,40.00407ZM46.45287,72.58226,65.41393,83.53447,84.375,72.58226V50.67784L65.41393,39.72563,46.45287,50.67784Zm50.869,1.19293C88.83294,84.798,69.10021,92.51945,69.10021,92.51945s35.53711,3.24329,43.43-15.36682c6.4618-15.23572-4.70886-27.41608-4.70886-27.41608S106.67016,61.63633,97.32183,73.77519ZM59.87273,27.85911c13.78864,1.84052,30.33991,15.0708,30.33991,15.0708S75.25445,10.52757,55.194,12.99736C38.7708,15.01927,33.8084,30.7855,33.8084,30.7855S44.688,25.83213,59.87273,27.85911Zm389.8335,49.11994V37.75016h-8.455V84.30088H470.6422V76.97905ZM339.496,58.62883h6.30866v5.20459h-5.6153v5.55163q0,17.10636-17.95532,17.10614-17.158,0-17.158-13.77514,0-8.56971,6.68988-11.55426-6.69012-2.94893-6.68988-11.03394,0-13.35819,17.67792-13.35883A45.16749,45.16749,0,0,1,335.2326,38.504v5.20471a43.593,43.593,0,0,0-12.028-1.73486q-11.71645,0-11.716,7.98047,0,8.67471,8.839,8.67456h13.44909V53.70164h2.18384Zm-5.7193,5.20459H320.39684q-8.90864,0-8.90826,8.70923,0,8.63973,10.43347,8.6397,11.8548,0,11.85461-11.86669Zm43.89569-1.39734a16.62525,16.62525,0,0,0-4.36175-2.95551q-2.58381-1.24218-5.87146-2.45184-1.87931-.67062-3.45581-1.41058a15.84159,15.84159,0,0,1-2.75116-1.61219,6.53887,6.53887,0,0,1-1.81165-1.98163,5.22535,5.22535,0,0,1-.63763-2.65338,4.63963,4.63963,0,0,1,1.91254-3.96307A8.83668,8.83668,0,0,1,366.03,43.99717a23.30879,23.30879,0,0,1,5.60309.6717,20.07675,20.07675,0,0,1,4.99908,1.94806l2.61707-6.85163a23.79075,23.79075,0,0,0-5.33466-2.116,28.13716,28.13716,0,0,0-7.75036-.97387q-7.516,0-11.8772,3.59363a12.14024,12.14024,0,0,0-4.36157,9.908,11.77268,11.77268,0,0,0,1.04,5.1723,11.89147,11.89147,0,0,0,2.75128,3.69446,15.67826,15.67826,0,0,0,3.959,2.58624q2.24743,1.04214,4.66364,1.91437,2.41571.806,4.29449,1.64575a16.94725,16.94725,0,0,1,3.18744,1.81372,7.37468,7.37468,0,0,1,2.013,2.1831,5.64006,5.64006,0,0,1,.70453,2.88837,5.12094,5.12094,0,0,1-2.08008,4.36627q-2.08071,1.54587-6.64313,1.54492a24.16235,24.16235,0,0,1-7.44848-1.00756,28.61539,28.61539,0,0,1-4.89838-2.0152L348.986,81.88261a19.382,19.382,0,0,0,2.14722,1.04126,28.57567,28.57567,0,0,0,3.18738,1.10828,33.80361,33.80361,0,0,0,4.22754.90692,34.59592,34.59592,0,0,0,5.26751.36944q8.58848,0,13.05146-3.45947,4.46172-3.459,4.46228-9.77362a14.94423,14.94423,0,0,0-.93946-5.60895A11.58126,11.58126,0,0,0,377.67235,62.43608ZM430.1795,50.47935A28.19821,28.19821,0,0,1,431.99132,60.992a28.951,28.951,0,0,1-1.77826,10.54608,21.81291,21.81291,0,0,1-4.83129,7.62408,19.92817,19.92817,0,0,1-7.14649,4.60138,24.50521,24.50521,0,0,1-8.72333,1.545,24.77572,24.77572,0,0,1-8.75677-1.545,19.85273,19.85273,0,0,1-7.18-4.60138,22.18265,22.18265,0,0,1-4.865-7.62408A28.45945,28.45945,0,0,1,386.89849,60.992a28.2005,28.2005,0,0,1,1.81165-10.51264,22.11675,22.11675,0,0,1,4.93212-7.624,20.37552,20.37552,0,0,1,7.21344-4.635,25.02312,25.02312,0,0,1,17.3125,0,19.74247,19.74247,0,0,1,7.14643,4.635A22.64535,22.64535,0,0,1,430.1795,50.47935ZM423.13384,60.992a24.10087,24.10087,0,0,0-.93945-6.95246,15.27389,15.27389,0,0,0-2.71771-5.30658,12.33653,12.33653,0,0,0-4.32807-3.39233,13.15164,13.15164,0,0,0-5.70379-1.20911,13.308,13.308,0,0,0-5.77076,1.20911,12.15273,12.15273,0,0,0-4.32818,3.4259,15.6488,15.6488,0,0,0-2.71759,5.30652,23.72388,23.72388,0,0,0-.93946,6.919,24.06364,24.06364,0,0,0,.93946,6.95227,15.23119,15.23119,0,0,0,2.71759,5.3067,12.30719,12.30719,0,0,0,4.32818,3.39221,13.30625,13.30625,0,0,0,5.77076,1.20905,13.14989,13.14989,0,0,0,5.70379-1.20905,12.32432,12.32432,0,0,0,4.32807-3.39221,15.26572,15.26572,0,0,0,2.71771-5.3067A24.09987,24.09987,0,0,0,423.13384,60.992Zm-248.7204-4.635H154.21557V37.75016h-8.4549V84.30088h8.4549v-20.622h20.19787v20.622h8.4549V37.75016h-8.4549ZM194.007,84.30088h8.4549V37.75016H194.007Zm47.17249-6.986a15.4297,15.4297,0,0,1-2.54993.43671,37.45681,37.45681,0,0,1-3.82483.16791,14.47407,14.47407,0,0,1-6.207-1.24274,12.25191,12.25191,0,0,1-4.42877-3.45935,15.17526,15.17526,0,0,1-2.684-5.34021,24.65394,24.65394,0,0,1-.90589-6.88519q0-7.92555,3.79126-12.39344,3.79011-4.46649,10.97132-4.467a23.09112,23.09112,0,0,1,6.27392.83966,20.56406,20.56406,0,0,1,4.99921,2.04877l2.55-6.91876q-.4704-.2677-1.64405-.87323a17.558,17.558,0,0,0-2.98608-1.142,38.95269,38.95269,0,0,0-4.32819-.974,33.85444,33.85444,0,0,0-5.73718-.43652,24.297,24.297,0,0,0-8.8576,1.61206,20.447,20.447,0,0,0-7.24695,4.73578,22.38448,22.38448,0,0,0-4.865,7.624A27.99448,27.99448,0,0,0,211.72149,60.992,30.62374,30.62374,0,0,0,213.332,71.33647a21.36082,21.36082,0,0,0,4.52942,7.59064,19.05973,19.05973,0,0,0,7.07928,4.70208,25.24581,25.24581,0,0,0,9.19306,1.61206,50.875,50.875,0,0,0,9.5957-.806,39.15213,39.15213,0,0,0,5.905-1.47784V60.58885H241.1795ZM288.084,56.357H267.88622V37.75016h-8.45489V84.30088h8.45489v-20.622H288.084v20.622H296.539V37.75016H288.084Z"/></svg>